Coordinates
version=1
nRows=21
nColumns=12
inDegrees=yes

Units are S.I. units (second, meters, Newtons, ...)
Angles are in degrees

endheader
time	SC_y	SC_z	SC_x	AC_y	AC_z	AC_x	GH_y	GH_z	GH_yy	EL_x	PS_y
       0.0              -34.29          30.78           61.5          34.91         -17.78          18.52          8.999          18.48         -157.3          51.62          135.2
   0.04155              -34.29          30.78           61.5          34.92         -17.78          18.52          9.017          18.48         -157.3          51.62          135.2
    0.0831              -34.29          30.77           61.5          34.92         -17.78          18.52          9.037          18.47         -157.3          51.63          135.2
    0.1247               -34.3          30.77           61.5          34.93         -17.77          18.52          9.058          18.47         -157.3          51.63          135.2
    0.1662               -34.3          30.77          61.49          34.93         -17.77          18.52          9.081          18.47         -157.3          51.63          135.2
    0.2078               -34.3          30.76          61.49          34.94         -17.76          18.52          9.105          18.46         -157.3          51.63          135.2
    0.2493               -34.3          30.76          61.49          34.95         -17.76          18.51          9.131          18.46         -157.3          51.63          135.2
    0.2909              -34.31          30.76          61.49          34.95         -17.75          18.51          9.158          18.45         -157.3          51.64          135.2
    0.3324              -34.31          30.76          61.48          34.96         -17.75          18.51          9.188          18.44         -157.3          51.64          135.2
     0.374              -34.31          30.75          61.48          34.97         -17.74          18.51          9.219          18.44         -157.3          51.64          135.2
    0.4155              -34.32          30.75          61.48          34.98         -17.73          18.51          9.253          18.43         -157.3          51.64          135.1
    0.4571              -34.32          30.74          61.48          34.99         -17.72          18.51          9.289          18.42         -157.2          51.65          135.1
    0.4986              -34.33          30.74          61.47           35.0         -17.72           18.5          9.329          18.42         -157.2          51.65          135.1
    0.5402              -34.33          30.73          61.47          35.01         -17.71           18.5          9.371          18.41         -157.2          51.65          135.1
    0.5817              -34.34          30.73          61.46          35.02          -17.7           18.5          9.417           18.4         -157.2          51.66          135.1
    0.6233              -34.34          30.72          61.46          35.03         -17.69           18.5          9.467          18.39         -157.2          51.66          135.1
    0.6648              -34.35          30.71          61.45          35.04         -17.68          18.49          9.521          18.38         -157.2          51.67          135.1
    0.7064              -34.36          30.71          61.45          35.06         -17.67          18.49           9.58          18.36         -157.1          51.67          135.1
    0.7479              -34.37           30.7          61.44          35.07         -17.65          18.49          9.645          18.35         -157.1          51.68          135.1
    0.7895              -34.37          30.69          61.44          35.09         -17.64          18.48          9.715          18.34         -157.1          51.68          135.1
     0.831              -34.38          30.68          61.43          35.11         -17.62          18.48          9.792          18.32         -157.1          51.69          135.1
